<svg width="200" height="28" viewBox="0 0 200 28" fill="none" xmlns="http://www.w3.org/2000/svg">
<path d="M13.9654 0.00277848C15.2694 -0.0402649 16.404 0.420821 17.4755 1.10658C18.235 1.59278 18.8268 2.24332 19.4358 2.88799C20.1408 3.63408 20.8718 4.35832 21.6221 5.06038C22.1031 5.51071 22.7227 5.77321 23.285 6.11299C24.1286 6.62299 24.9956 7.11016 25.774 7.70723C26.8256 8.51364 27.5719 9.56429 27.8604 10.8787C27.9669 11.3649 27.9411 11.8599 27.9014 12.3546C27.82 13.3661 27.472 14.285 26.9559 15.1531C26.561 15.8177 26.2024 16.5044 25.7862 17.1553C25.2388 18.0112 24.8878 18.9386 24.6427 19.9123C24.4217 20.7901 24.2255 21.6745 23.9764 22.5442C23.6999 23.5091 23.2275 24.3892 22.592 25.1701C21.9076 26.0111 20.9731 26.4657 19.9344 26.7415C19.2086 26.9343 18.4772 26.9388 17.7418 26.828C17.1669 26.7412 16.5906 26.6568 16.0216 26.539C15.6846 26.4693 15.3597 26.3411 15.0319 26.2309C14.3193 25.9909 13.6121 26.0007 12.8969 26.2299C12.4013 26.3887 11.9035 26.5586 11.3931 26.648C10.6911 26.7706 9.97624 26.8915 9.26734 26.8896C7.77642 26.8857 6.46876 26.3744 5.43501 25.2804C5.0344 24.8561 4.76282 24.3438 4.48428 23.8371C4.02182 22.9958 3.83492 22.0723 3.61295 21.1537C3.35857 20.1011 3.1323 19.0325 2.6437 18.0533C2.37972 17.5241 2.04065 17.0317 1.74789 16.5158C1.36913 15.8486 0.984404 15.1834 0.634417 14.5016C0.0581608 13.3779 -0.103601 12.1772 0.0608072 10.9387C0.138876 10.3515 0.398555 9.82059 0.717448 9.31907C1.27981 8.43505 1.99434 7.7056 2.90834 7.16983C3.67415 6.72081 4.42375 6.24375 5.19914 5.81168C6.04963 5.33788 6.76913 4.71506 7.43073 4.01919C7.99938 3.42082 8.55281 2.80843 9.12542 2.2143C9.87767 1.43397 10.9591 0.548647 12.5158 0.170387C13.1073 0.0262567 13.617 0.000495871 13.9654 0.00277848ZM13.9733 24.395C19.8675 24.3344 24.3585 19.6841 24.3492 14.1295C24.34 8.5032 19.7809 3.89658 13.9677 3.89658C8.13137 3.89658 3.58285 8.52733 3.58351 14.1432C3.5845 19.7307 8.11251 24.3455 13.9733 24.3947V24.395Z" fill="#F2F3EB"/>
<path d="M57.5541 20.8171L66.1498 1.27825H73.5554V2.53455C72.8501 2.55659 72.2771 2.64476 71.8363 2.79904C71.4175 2.95332 71.0869 3.21781 70.8445 3.5925C70.6241 3.94514 70.4698 4.44105 70.3816 5.08023C70.3155 5.7194 70.2824 6.5349 70.2824 7.52672V20.4865C70.2824 21.5885 70.3265 22.4591 70.4147 23.0983C70.5028 23.7375 70.6681 24.2334 70.9106 24.586C71.1751 24.9387 71.5387 25.1701 72.0016 25.2803C72.4865 25.3905 73.1146 25.4566 73.886 25.4787V26.735H63.1744V25.4787C63.9458 25.4566 64.5629 25.3905 65.0258 25.2803C65.5107 25.1481 65.8854 24.9166 66.1498 24.586C66.4143 24.2554 66.5906 23.7926 66.6788 23.1975C66.767 22.5804 66.8111 21.7538 66.8111 20.7179V5.37777H66.4804L56.8267 27.0656H56.0994L46.611 5.37777H46.4787V20.4865C46.4787 21.5885 46.5228 22.4591 46.611 23.0983C46.6991 23.7375 46.8644 24.2334 47.1069 24.586C47.3714 24.9387 47.735 25.1701 48.1979 25.2803C48.6828 25.3905 49.3109 25.4566 50.0823 25.4787V26.735H40.8584V25.4787C41.6298 25.4566 42.2469 25.3905 42.7098 25.2803C43.1947 25.1481 43.5694 24.9166 43.8339 24.586C44.0983 24.2554 44.2747 23.7926 44.3628 23.1975C44.451 22.5804 44.4951 21.7538 44.4951 20.7179V7.2953C44.4951 6.3696 44.451 5.6092 44.3628 5.01411C44.2967 4.39697 44.1424 3.91208 43.9 3.55944C43.6796 3.20679 43.349 2.96434 42.9082 2.8321C42.4674 2.67782 41.8943 2.57863 41.189 2.53455V1.27825H49.0905L57.4218 20.8171H57.5541Z" fill="#F2F3EB"/>
<path d="M82.6786 8.88221C83.9349 8.88221 85.1251 9.11363 86.2492 9.57648C87.3732 10.0173 88.354 10.6344 89.1916 11.4279C90.0512 12.2213 90.7234 13.1691 91.2083 14.2711C91.7152 15.3511 91.9687 16.5413 91.9687 17.8417C91.9687 19.1861 91.7152 20.4204 91.2083 21.5445C90.7234 22.6685 90.0512 23.6383 89.1916 24.4538C88.354 25.2693 87.3732 25.9085 86.2492 26.3713C85.1251 26.8342 83.9349 27.0656 82.6786 27.0656C81.4444 27.0656 80.2652 26.8452 79.1411 26.4044C78.0391 25.9415 77.0693 25.3024 76.2318 24.4869C75.3942 23.6714 74.733 22.7016 74.2481 21.5775C73.7633 20.4314 73.5208 19.1861 73.5208 17.8417C73.5208 16.5413 73.7633 15.3401 74.2481 14.238C74.733 13.136 75.3942 12.1883 76.2318 11.3948C77.0693 10.6014 78.0391 9.98423 79.1411 9.54342C80.2652 9.10261 81.4444 8.88221 82.6786 8.88221ZM82.6786 10.4691C81.8631 10.4691 81.1137 10.6454 80.4305 10.9981C79.7693 11.3507 79.1962 11.8577 78.7113 12.5189C78.2485 13.1581 77.8848 13.9405 77.6203 14.8662C77.3779 15.7699 77.2567 16.7727 77.2567 17.8747C77.2567 19.0208 77.3779 20.0567 77.6203 20.9824C77.8848 21.9081 78.2485 22.7016 78.7113 23.3628C79.1962 24.002 79.7693 24.4979 80.4305 24.8505C81.0917 25.2032 81.8411 25.3795 82.6786 25.3795C83.5162 25.3795 84.2766 25.2032 84.9598 24.8505C85.6431 24.4979 86.2271 23.9909 86.712 23.3297C87.1969 22.6685 87.5716 21.8751 87.8361 20.9494C88.1006 20.0237 88.2328 18.9988 88.2328 17.8747C88.2328 16.7727 88.1006 15.7699 87.8361 14.8662C87.5716 13.9625 87.1969 13.1911 86.712 12.5519C86.2271 11.8907 85.6431 11.3838 84.9598 11.0312C84.2766 10.6565 83.5162 10.4691 82.6786 10.4691Z" fill="#F2F3EB"/>
<path d="M102.263 8.88221C103.519 8.88221 104.709 9.11363 105.833 9.57648C106.958 10.0173 107.938 10.6344 108.776 11.4279C109.635 12.2213 110.308 13.1691 110.793 14.2711C111.299 15.3511 111.553 16.5413 111.553 17.8417C111.553 19.1861 111.299 20.4204 110.793 21.5445C110.308 22.6685 109.635 23.6383 108.776 24.4538C107.938 25.2693 106.958 25.9085 105.833 26.3713C104.709 26.8342 103.519 27.0656 102.263 27.0656C101.029 27.0656 99.8495 26.8452 98.7254 26.4044C97.6234 25.9415 96.6536 25.3024 95.8161 24.4869C94.9785 23.6714 94.3173 22.7016 93.8324 21.5775C93.3475 20.4314 93.1051 19.1861 93.1051 17.8417C93.1051 16.5413 93.3475 15.3401 93.8324 14.238C94.3173 13.136 94.9785 12.1883 95.8161 11.3948C96.6536 10.6014 97.6234 9.98423 98.7254 9.54342C99.8495 9.10261 101.029 8.88221 102.263 8.88221ZM102.263 10.4691C101.447 10.4691 100.698 10.6454 100.015 10.9981C99.3536 11.3507 98.7805 11.8577 98.2956 12.5189C97.8328 13.1581 97.4691 13.9405 97.2046 14.8662C96.9622 15.7699 96.8409 16.7727 96.8409 17.8747C96.8409 19.0208 96.9622 20.0567 97.2046 20.9824C97.4691 21.9081 97.8328 22.7016 98.2956 23.3628C98.7805 24.002 99.3536 24.4979 100.015 24.8505C100.676 25.2032 101.425 25.3795 102.263 25.3795C103.1 25.3795 103.861 25.2032 104.544 24.8505C105.227 24.4979 105.811 23.9909 106.296 23.3297C106.781 22.6685 107.156 21.8751 107.42 20.9494C107.685 20.0237 107.817 18.9988 107.817 17.8747C107.817 16.7727 107.685 15.7699 107.42 14.8662C107.156 13.9625 106.781 13.1911 106.296 12.5519C105.811 11.8907 105.227 11.3838 104.544 11.0312C103.861 10.6565 103.1 10.4691 102.263 10.4691Z" fill="#F2F3EB"/>
<path d="M117.184 21.5445C117.184 22.4481 117.206 23.1644 117.25 23.6934C117.294 24.2003 117.405 24.5971 117.581 24.8836C117.779 25.1481 118.055 25.3244 118.407 25.4126C118.782 25.5007 119.289 25.5668 119.928 25.6109V26.735H111.266V25.6109C111.883 25.5668 112.368 25.5007 112.721 25.4126C113.096 25.3244 113.382 25.1481 113.581 24.8836C113.779 24.6191 113.9 24.2444 113.944 23.7595C114.01 23.2746 114.043 22.6134 114.043 21.7759V17.3788C114.043 14.756 113.977 13.1581 113.845 12.585C113.779 12.2985 113.691 12.0671 113.581 11.8907C113.492 11.6924 113.349 11.5491 113.151 11.4609C112.952 11.3507 112.699 11.2846 112.39 11.2626C112.082 11.2185 111.685 11.1965 111.2 11.1965V10.1385L116.49 8.88221L116.887 12.1552H117.019C117.856 11.1193 118.837 10.3148 119.961 9.74179C121.085 9.16874 122.309 8.88221 123.631 8.88221C124.645 8.88221 125.571 9.04751 126.408 9.37812C127.246 9.70873 127.885 10.1606 128.326 10.7336C128.7 11.2405 128.965 11.9018 129.119 12.7173C129.273 13.5107 129.35 14.6127 129.35 16.0233V21.5445C129.35 22.4481 129.373 23.1644 129.417 23.6934C129.483 24.2003 129.604 24.5971 129.78 24.8836C129.957 25.1481 130.221 25.3244 130.574 25.4126C130.948 25.5007 131.433 25.5668 132.028 25.6109V26.735H123.466V25.6109C124.083 25.5889 124.568 25.5338 124.92 25.4456C125.295 25.3354 125.571 25.1481 125.747 24.8836C125.945 24.6191 126.066 24.2444 126.111 23.7595C126.177 23.2526 126.21 22.5914 126.21 21.7759V17.4119C126.21 16.1556 126.144 15.0976 126.011 14.238C125.879 13.3785 125.659 12.6842 125.35 12.1552C125.064 11.6262 124.678 11.2516 124.193 11.0312C123.708 10.7887 123.124 10.6675 122.441 10.6675C121.449 10.6675 120.534 10.932 119.697 11.4609C118.881 11.9679 118.242 12.6732 117.779 13.5768C117.669 13.7972 117.57 14.0066 117.482 14.205C117.416 14.4033 117.36 14.6348 117.316 14.8993C117.272 15.1637 117.239 15.4723 117.217 15.825C117.195 16.1556 117.184 16.5854 117.184 17.1143V21.5445Z" fill="#F2F3EB"/>
<path d="M133.879 13.3123C133.615 12.6511 133.372 12.1332 133.152 11.7585C132.953 11.3618 132.733 11.0642 132.491 10.8659C132.248 10.6675 131.973 10.5463 131.664 10.5022C131.378 10.4361 131.025 10.392 130.606 10.3699V9.21282H139.367V10.3699C138.926 10.392 138.563 10.414 138.276 10.4361C137.99 10.4581 137.758 10.5132 137.582 10.6014C137.428 10.6675 137.317 10.7777 137.251 10.932C137.185 11.0642 137.152 11.2626 137.152 11.5271C137.152 11.9018 137.196 12.2544 137.284 12.585C137.395 12.9156 137.505 13.2462 137.615 13.5768L141.119 23.1644H141.252L144.26 16.0564C144.723 14.9544 145.054 14.0727 145.252 13.4115C145.45 12.7503 145.55 12.1662 145.55 11.6593C145.55 11.1524 145.417 10.8108 145.153 10.6344C144.888 10.4581 144.315 10.3699 143.434 10.3699V9.21282H150.013V10.3699C149.66 10.3699 149.341 10.4581 149.054 10.6344C148.768 10.8108 148.514 11.0312 148.294 11.2956C148.117 11.5381 147.93 11.8687 147.732 12.2875C147.555 12.6842 147.368 13.103 147.17 13.5438C146.993 13.9846 146.828 14.4254 146.674 14.8662C146.519 15.285 146.376 15.6266 146.244 15.8911L141.384 27.0987H139.466L133.879 13.3123Z" fill="#F2F3EB"/>
<path d="M157.979 21.3572C157.979 22.2168 158.012 22.9111 158.078 23.44C158.166 23.947 158.32 24.3547 158.541 24.6633C158.761 24.9498 159.07 25.1482 159.466 25.2584C159.863 25.3686 160.392 25.4347 161.053 25.4567V26.6139H151.565V25.4567C152.226 25.4347 152.766 25.3686 153.185 25.2584C153.604 25.1261 153.923 24.9278 154.144 24.6633C154.386 24.3768 154.54 23.9911 154.607 23.5062C154.695 22.9992 154.739 22.3601 154.739 21.5886V17.3569C154.739 16.0785 154.717 15.0316 154.673 14.2161C154.651 13.3786 154.596 12.8055 154.507 12.4969C154.397 11.99 154.144 11.6484 153.747 11.4721C153.35 11.2737 152.601 11.1745 151.499 11.1745V10.0174L157.979 8.76109V21.3572ZM154.177 2.04976C154.177 1.47671 154.375 0.991821 154.772 0.595093C155.169 0.198364 155.654 0 156.227 0C156.8 0 157.284 0.198364 157.681 0.595093C158.078 0.991821 158.276 1.47671 158.276 2.04976C158.276 2.62282 158.078 3.10771 157.681 3.50443C157.284 3.90116 156.8 4.09953 156.227 4.09953C155.654 4.09953 155.169 3.90116 154.772 3.50443C154.375 3.10771 154.177 2.62282 154.177 2.04976Z" fill="#F2F3EB"/>
<path d="M168.61 21.5445C168.61 22.4481 168.632 23.1644 168.677 23.6934C168.721 24.2003 168.831 24.5971 169.007 24.8836C169.205 25.1481 169.481 25.3244 169.834 25.4126C170.208 25.5007 170.715 25.5668 171.354 25.6109V26.735H162.693V25.6109C163.31 25.5668 163.795 25.5007 164.147 25.4126C164.522 25.3244 164.808 25.1481 165.007 24.8836C165.205 24.6191 165.326 24.2444 165.37 23.7595C165.437 23.2746 165.47 22.6134 165.47 21.7759V17.3788C165.47 14.756 165.404 13.1581 165.271 12.585C165.205 12.2985 165.117 12.0671 165.007 11.8907C164.919 11.6924 164.775 11.5491 164.577 11.4609C164.379 11.3507 164.125 11.2846 163.817 11.2626C163.508 11.2185 163.111 11.1965 162.626 11.1965V10.1385L167.916 8.88221L168.313 12.1552H168.445C169.283 11.1193 170.263 10.3148 171.387 9.74179C172.512 9.16874 173.735 8.88221 175.057 8.88221C176.071 8.88221 176.997 9.04751 177.834 9.37812C178.672 9.70873 179.311 10.1606 179.752 10.7336C180.127 11.2405 180.391 11.9018 180.545 12.7173C180.7 13.5107 180.777 14.6127 180.777 16.0233V21.5445C180.777 22.4481 180.799 23.1644 180.843 23.6934C180.909 24.2003 181.03 24.5971 181.207 24.8836C181.383 25.1481 181.647 25.3244 182 25.4126C182.375 25.5007 182.86 25.5668 183.455 25.6109V26.735H174.892V25.6109C175.509 25.5889 175.994 25.5338 176.347 25.4456C176.721 25.3354 176.997 25.1481 177.173 24.8836C177.371 24.6191 177.493 24.2444 177.537 23.7595C177.603 23.2526 177.636 22.5914 177.636 21.7759V17.4119C177.636 16.1556 177.57 15.0976 177.438 14.238C177.305 13.3785 177.085 12.6842 176.776 12.1552C176.49 11.6262 176.104 11.2516 175.619 11.0312C175.134 10.7887 174.55 10.6675 173.867 10.6675C172.875 10.6675 171.961 10.932 171.123 11.4609C170.307 11.9679 169.668 12.6732 169.205 13.5768C169.095 13.7972 168.996 14.0066 168.908 14.205C168.842 14.4033 168.787 14.6348 168.743 14.8993C168.699 15.1637 168.665 15.4723 168.643 15.825C168.621 16.1556 168.61 16.5854 168.61 17.1143V21.5445Z" fill="#F2F3EB"/>
<path d="M199.868 23.6603C197.994 25.9305 195.669 27.0656 192.892 27.0656C191.592 27.0656 190.412 26.8562 189.354 26.4374C188.296 25.9966 187.382 25.3905 186.61 24.6191C185.861 23.8256 185.277 22.8889 184.858 21.8089C184.439 20.7069 184.23 19.4947 184.23 18.1723C184.23 16.8278 184.45 15.5825 184.891 14.4364C185.332 13.2903 185.949 12.3095 186.743 11.494C187.558 10.6785 188.517 10.0393 189.619 9.57648C190.743 9.11363 191.966 8.88221 193.289 8.88221C195.427 8.88221 197.08 9.46628 198.248 10.6344C199.416 11.7805 200 13.4336 200 15.5935C200 15.9021 199.934 16.0894 199.802 16.1556C199.691 16.2217 199.416 16.2547 198.975 16.2547H188.098C188.054 16.4311 188.021 16.6515 187.999 16.916C187.977 17.1584 187.966 17.4339 187.966 17.7425C187.966 18.8886 188.098 19.9355 188.363 20.8832C188.649 21.8089 189.046 22.6024 189.553 23.2636C190.082 23.9248 190.699 24.4428 191.404 24.8175C192.132 25.1701 192.936 25.3464 193.818 25.3464C194.743 25.3464 195.603 25.1481 196.396 24.7513C197.19 24.3326 198.005 23.6603 198.843 22.7346L199.868 23.6603ZM194.413 14.734C194.854 14.734 195.206 14.7229 195.471 14.7009C195.735 14.6789 195.934 14.6348 196.066 14.5687C196.198 14.5025 196.286 14.4144 196.33 14.3042C196.374 14.1719 196.396 14.0066 196.396 13.8083C196.396 12.7944 196.066 11.9899 195.405 11.3948C194.765 10.7777 193.884 10.4691 192.76 10.4691C190.379 10.4691 188.903 11.8907 188.33 14.734H194.413Z" fill="#F2F3EB"/>
</svg>
