<svg width="25" height="25" viewBox="0 0 25 25" fill="none" xmlns="http://www.w3.org/2000/svg">
<path d="M6.20215 3.00488H20.3066C20.4612 3.00488 20.5981 3.04107 20.7168 3.11328C20.8363 3.18605 20.9302 3.2807 20.999 3.39648C21.0681 3.51298 21.1124 3.63972 21.1309 3.77734C21.1491 3.91256 21.1226 4.05358 21.0498 4.19922H21.0488L19.2324 8.00391L19.2275 8.01465L19.2324 8.02539L21.0488 11.8301L21.0498 11.8311C21.1225 11.9765 21.148 12.1169 21.1279 12.252C21.1075 12.3899 21.0624 12.5171 20.9932 12.6338C20.9244 12.7497 20.8312 12.8425 20.7139 12.9131C20.5972 12.9833 20.4613 13.0195 20.3066 13.0195H7.0293V21.4326C7.0293 21.6667 6.94866 21.8627 6.78906 22.0215C6.62961 22.18 6.43328 22.2597 6.19824 22.2598C5.96301 22.2598 5.76783 22.18 5.61133 22.0215C5.45451 21.8627 5.37598 21.6669 5.37598 21.4326V3.83691C5.37605 3.6029 5.45545 3.40586 5.61426 3.24512C5.77294 3.0847 5.96837 3.00493 6.20215 3.00488ZM7.0293 11.3662H18.9736L18.9561 11.3301L17.7109 8.75586C17.5968 8.52519 17.54 8.27862 17.54 8.01758C17.5401 7.82183 17.5716 7.63461 17.6357 7.45605L17.7109 7.28027L18.9561 4.69922L18.9736 4.66406H7.0293V11.3662Z" fill="#F2F3EB" stroke="#F2F3EB" stroke-width="0.05"/>
</svg>
