<svg width="25" height="25" viewBox="0 0 25 25" fill="none" xmlns="http://www.w3.org/2000/svg">
<path d="M12.499 2.36987C13.9158 2.36987 15.2395 2.62838 16.4707 3.14526C17.7023 3.66233 18.7742 4.37544 19.6855 5.28491C20.5972 6.19441 21.3163 7.26253 21.8418 8.48804C22.3669 9.71277 22.6299 11.0333 22.6299 12.45C22.6299 13.8667 22.367 15.1948 21.8418 16.4343C21.3163 17.6745 20.5972 18.7513 19.6855 19.6648C18.7741 20.5784 17.7025 21.3001 16.4707 21.8298C15.2395 22.3594 13.9158 22.6248 12.499 22.6248C11.0823 22.6247 9.75852 22.3594 8.52734 21.8298C7.29552 21.3001 6.22398 20.5784 5.3125 19.6648C4.40087 18.7513 3.68265 17.6745 3.15918 16.4343C2.63597 15.1948 2.375 13.8667 2.375 12.45C2.375 11.0333 2.63609 9.71274 3.15918 8.48804C3.68263 7.26254 4.40084 6.19441 5.3125 5.28491C6.2239 4.3754 7.29566 3.66235 8.52734 3.14526C9.75852 2.62835 11.0822 2.36988 12.499 2.36987ZM10.0986 16.2009C10.3283 17.2024 10.6387 18.1021 11.0293 18.9001C11.42 19.6982 11.9015 20.4047 12.4746 21.0193L12.4932 21.0388L12.5107 21.0193C13.0839 20.4214 13.5663 19.7358 13.957 18.9626C14.3477 18.1894 14.6705 17.2688 14.9248 16.2009L14.9316 16.1697H10.0918L10.0986 16.2009ZM4.8252 16.2068C5.45169 17.3884 6.18104 18.3165 7.01367 18.99C7.84597 19.6634 8.96756 20.2424 10.3779 20.7263L10.4482 20.7498L10.4072 20.6882C9.98759 20.0644 9.63029 19.3868 9.33691 18.655C9.04352 17.9232 8.79741 17.1009 8.59766 16.1892L8.59277 16.1697H4.80566L4.8252 16.2068ZM16.4258 16.1892C16.2094 17.0843 15.9561 17.8976 15.667 18.6296C15.378 19.3612 15.024 20.0392 14.6045 20.6628L14.5645 20.7224L14.6328 20.7009C15.8276 20.3207 16.9037 19.7477 17.8604 18.9812C18.8173 18.2145 19.5861 17.2892 20.167 16.2068L20.1875 16.1697H16.4307L16.4258 16.1892ZM4.3291 10.2546C4.21219 10.6555 4.1327 11.0136 4.09082 11.3279C4.04898 11.6419 4.02832 12.016 4.02832 12.45C4.02832 12.8799 4.04903 13.2654 4.09082 13.6062C4.13268 13.9475 4.21214 14.3194 4.3291 14.7205L4.33398 14.738H8.32617L8.32324 14.7107C8.2733 14.2612 8.24366 13.8581 8.23535 13.5027C8.22703 13.1466 8.22266 12.7957 8.22266 12.45C8.22266 12.0336 8.23141 11.6649 8.24805 11.3445C8.26468 11.0244 8.29775 10.6647 8.34766 10.2654L8.35156 10.2371H4.33398L4.3291 10.2546ZM9.82324 10.2585C9.75656 10.7754 9.71496 11.1867 9.69824 11.4919C9.68155 11.7968 9.67285 12.1162 9.67285 12.45C9.67285 12.7964 9.68155 13.1314 9.69824 13.4548C9.71496 13.7787 9.75654 14.1996 9.82324 14.7166L9.82617 14.738H15.1973L15.2002 14.7156C15.2629 14.1989 15.3017 13.7786 15.3164 13.4548C15.3313 13.1314 15.3379 12.7963 15.3379 12.45C15.3379 12.1163 15.3313 11.7967 15.3164 11.4919C15.3017 11.1868 15.2629 10.7753 15.2002 10.2585L15.1973 10.2371H9.82617L9.82324 10.2585ZM16.6748 10.2634C16.7169 10.8504 16.747 11.2953 16.7637 11.5974C16.7803 11.8993 16.7881 12.1838 16.7881 12.45C16.7881 12.812 16.7759 13.1541 16.751 13.4763C16.726 13.7992 16.6925 14.2108 16.6504 14.7107L16.6475 14.738H20.6582L20.6631 14.7195C20.776 14.3186 20.8546 13.9473 20.8984 13.6062C20.9422 13.2654 20.9648 12.8799 20.9648 12.45C20.9648 12.016 20.9423 11.642 20.8984 11.3279C20.8546 11.0139 20.7759 10.6563 20.6631 10.2556L20.6582 10.2371H16.6729L16.6748 10.2634ZM10.3555 4.29858C9.10625 4.61206 8.01533 5.14292 7.08496 5.89136C6.15461 6.6399 5.40093 7.59709 4.82422 8.76245L4.80664 8.79858H8.61816L8.62305 8.77905C8.80614 7.88807 9.0358 7.09024 9.3125 6.3855C9.58914 5.68093 9.94547 4.99789 10.3818 4.33667L10.417 4.28296L10.3555 4.29858ZM12.4766 4.02905C11.9524 4.47756 11.5074 5.06795 11.1416 5.79956C10.7759 6.53117 10.4282 7.52063 10.0986 8.76733L10.0908 8.79858H14.9561L14.9492 8.76929C14.7694 7.89142 14.4627 7.03864 14.0283 6.21167C13.5941 5.38503 13.0886 4.65803 12.5117 4.03101L12.4951 4.01343L12.4766 4.02905ZM14.5791 4.31226C14.9987 4.92336 15.3536 5.58556 15.6426 6.29858C15.9316 7.01166 16.184 7.83904 16.4004 8.78003L16.4053 8.79858H20.1846L20.168 8.76343C19.6204 7.61799 18.8675 6.66139 17.9102 5.89429C16.953 5.12737 15.8518 4.58668 14.6064 4.27319L14.542 4.25757L14.5791 4.31226Z" fill="#F2F3EB" stroke="#F2F3EB" stroke-width="0.05"/>
</svg>
