<svg width="25" height="25" viewBox="0 0 25 25" fill="none" xmlns="http://www.w3.org/2000/svg">
<path d="M2.21973 6.08551C2.45488 6.08561 2.6502 6.16509 2.80664 6.32379C2.96341 6.48254 3.04199 6.67861 3.04199 6.91266V19.9888H20.2148C20.4488 19.9888 20.6449 20.0695 20.8037 20.2291C20.9621 20.3885 21.0419 20.5849 21.042 20.8199C21.042 21.0549 20.9622 21.2501 20.8037 21.4068C20.645 21.5636 20.4489 21.6422 20.2148 21.6422H3.06641C2.61357 21.6421 2.2209 21.472 1.8877 21.1304C1.5542 20.7886 1.38872 20.4002 1.38867 19.9644V6.91266C1.38867 6.67871 1.46833 6.48258 1.62793 6.32379C1.78748 6.16505 1.98453 6.08551 2.21973 6.08551ZM6.27539 3.35211H21.9346C22.3876 3.35211 22.7811 3.51875 23.1143 3.85309C23.4473 4.1875 23.6133 4.5813 23.6133 5.03571V16.7554C23.6132 17.1952 23.4469 17.5855 23.1133 17.9273C22.7801 18.269 22.3874 18.439 21.9346 18.439H6.27539C5.82098 18.4389 5.42707 18.269 5.09277 17.9273C4.75806 17.5855 4.59191 17.1951 4.5918 16.7554V5.03571C4.5918 4.58121 4.75839 4.18756 5.09277 3.85309C5.42702 3.51884 5.8208 3.35221 6.27539 3.35211ZM21.9189 6.85504L14.6152 12.8892C14.4651 13.0101 14.2943 13.0708 14.1016 13.0709C13.9088 13.0709 13.7404 13.0101 13.5957 12.8892L6.29199 6.85504L6.25098 6.82086V16.7798H21.96V6.82086L21.9189 6.85504ZM6.38477 5.05524L14.0869 11.3892L14.1025 11.4019L14.1182 11.3892L21.8262 5.05524L21.8799 5.01031H6.33105L6.38477 5.05524Z" fill="#F2F3EB" stroke="#F2F3EB" stroke-width="0.05"/>
</svg>
