<svg width="18" height="18" viewBox="0 0 18 18" fill="none" xmlns="http://www.w3.org/2000/svg">
<path d="M8.45019 7.28271C8.54354 7.25745 8.65435 7.26122 8.7832 7.29736V7.29834L15.5381 9.42822C15.6297 9.46424 15.7022 9.51524 15.7568 9.57959C15.8107 9.6431 15.8379 9.71927 15.8379 9.80908C15.8379 9.89577 15.8149 9.97016 15.7705 10.0337C15.7262 10.0971 15.659 10.1472 15.5674 10.1831L13.2168 11.0151L13.1787 11.0288L13.207 11.0562L17.3691 15.2183C17.5344 15.3837 17.6161 15.5784 17.6162 15.8032C17.6162 16.028 17.5343 16.2227 17.3691 16.3882L16.8477 16.9097C16.6823 17.075 16.4886 17.1567 16.2656 17.1548C16.0983 17.1533 15.9473 17.1072 15.8125 17.0161L15.6836 16.9097L11.4678 12.6938L11.4551 12.7329L10.748 14.8979C10.7121 14.993 10.6613 15.0653 10.5957 15.1157C10.5301 15.1662 10.4542 15.1919 10.3682 15.1919C10.2822 15.1919 10.2034 15.1658 10.1309 15.1147C10.0771 15.0768 10.0343 15.027 10.0029 14.9644L9.97559 14.8979L8.01367 8.0376L7.99219 7.94678C7.97712 7.85782 7.98042 7.77587 8.00098 7.70068C8.02161 7.62551 8.05905 7.55694 8.11328 7.49561L8.17383 7.43603C8.26276 7.35964 8.35508 7.30857 8.45019 7.28271ZM4.54199 12.2095C4.69476 12.2095 4.82781 12.2473 4.94238 12.3218L5.05176 12.4087C5.18368 12.5449 5.24997 12.714 5.25 12.9175C5.25 13.121 5.18122 13.2899 5.04492 13.4263L3.84473 14.6265C3.70842 14.7588 3.53956 14.8266 3.33594 14.8286C3.13227 14.8306 2.96524 14.7625 2.83301 14.6265C2.69664 14.4901 2.62893 14.3222 2.63086 14.1206C2.6328 13.9188 2.70041 13.7502 2.83301 13.6138L4.03223 12.4087C4.16857 12.2762 4.3382 12.2095 4.54199 12.2095ZM1.24512 7.79932H2.88867C3.1071 7.79932 3.28797 7.87063 3.43262 8.01318C3.577 8.1557 3.64941 8.33749 3.64941 8.56006C3.64932 8.78246 3.57781 8.96358 3.43555 9.10596C3.29303 9.24831 3.11124 9.3208 2.88867 9.3208H1.24512C1.02669 9.3208 0.845819 9.24851 0.701172 9.10596C0.556879 8.96354 0.484475 8.78242 0.484375 8.56006C0.484375 8.33741 0.555841 8.15567 0.698242 8.01318C0.840754 7.87083 1.02255 7.79932 1.24512 7.79932ZM3.33887 2.2124C3.54027 2.2124 3.70832 2.28116 3.84473 2.41748L5.05078 3.61768C5.18311 3.75396 5.24997 3.92283 5.25 4.12646C5.25 4.33043 5.18302 4.49813 5.05078 4.63037C4.91452 4.76645 4.74449 4.83446 4.53906 4.83447C4.33337 4.83447 4.16541 4.7663 4.0332 4.63037H4.03223L2.83301 3.43018C2.70046 3.29377 2.6328 3.12428 2.63086 2.92041C2.62897 2.71683 2.69575 2.54692 2.83203 2.41064C2.96833 2.27838 3.13721 2.21243 3.33887 2.2124ZM15.0137 2.21631C15.1662 2.21783 15.2995 2.25655 15.4141 2.3335L15.5225 2.42334C15.655 2.55971 15.7216 2.72677 15.7217 2.92627C15.7217 3.12587 15.6531 3.29369 15.5166 3.43018L14.3164 4.63037C14.1801 4.76648 14.011 4.83447 13.8076 4.83447C13.604 4.83445 13.4369 4.76642 13.3047 4.63037L13.3037 4.62939C13.1678 4.49716 13.0996 4.33002 13.0996 4.12646C13.0996 3.92295 13.1683 3.75404 13.3047 3.61768L14.5049 2.41748C14.6412 2.28132 14.8103 2.21437 15.0137 2.21631ZM9.1748 0.0942383C9.3975 0.0942532 9.57918 0.16561 9.72168 0.308105C9.86396 0.450601 9.93555 0.632473 9.93555 0.85498V2.49854C9.93555 2.71688 9.86413 2.89786 9.72168 3.04248C9.57916 3.18693 9.3974 3.25926 9.1748 3.25928C8.95208 3.25928 8.77044 3.18792 8.62793 3.04541C8.48558 2.9029 8.41406 2.7211 8.41406 2.49854V0.85498C8.41406 0.636615 8.48546 0.455661 8.62793 0.311035C8.77046 0.166572 8.95218 0.0942383 9.1748 0.0942383Z" fill="#F2F3EB" stroke="#F2F3EB" stroke-width="0.05"/>
</svg>
